<svg xmlns="http://www.w3.org/2000/svg" width="180" height="180" viewBox="0 0 180 180"><defs><linearGradient id="a" x1="0%" x2="100%" y1="0%" y2="96.558%"><stop offset="0%" stop-color="#404040"/><stop offset="100%" stop-color="#CA8A04"/></linearGradient></defs><path fill="url(#a)" d="M90,123.75 C71.3603897,123.75 56.25,108.63961 56.25,90 C56.25,71.3603897 71.3603897,56.25 90,56.25 C108.63961,56.25 123.75,71.3603897 123.75,90 C123.75,108.63961 108.63961,123.75 90,123.75 Z M90,135 C114.852814,135 135,114.852814 135,90 C135,65.1471863 114.852814,45 90,45 C65.1471863,45 45,65.1471863 45,90 C45,114.852814 65.1471863,135 90,135 Z M90,0 C93.1066017,0 95.625,2.51839828 95.625,5.625 L95.625,28.125 C95.625,31.2316017 93.1066017,33.75 90,33.75 C86.8933983,33.75 84.375,31.2316017 84.375,28.125 L84.375,5.625 C84.375,2.51839828 86.8933983,0 90,0 Z M90,146.25 C93.1066017,146.25 95.625,148.768398 95.625,151.875 L95.625,174.375 C95.625,177.481602 93.1066017,180 90,180 C86.8933983,180 84.375,177.481602 84.375,174.375 L84.375,151.875 C84.375,148.768398 86.8933983,146.25 90,146.25 Z M180,90 C180,93.1066017 177.481602,95.625 174.375,95.625 L151.875,95.625 C148.768398,95.625 146.25,93.1066017 146.25,90 C146.25,86.8933983 148.768398,84.375 151.875,84.375 L174.375,84.375 C177.481602,84.375 180,86.8933983 180,90 Z M33.75,90 C33.75,93.1066017 31.2316017,95.625 28.125,95.625 L5.625,95.625 C2.51839828,95.625 0,93.1066017 0,90 C0,86.8933983 2.51839828,84.375 5.625,84.375 L28.125,84.375 C31.2316017,84.375 33.75,86.8933983 33.75,90 Z M153.64125,26.35875 C155.837149,28.5553117 155.837149,32.1159383 153.64125,34.3125 L137.73375,50.23125 C136.31094,51.6520506 134.238221,52.2058643 132.296366,51.6840748 C130.354512,51.1622853 128.838536,49.6441648 128.319491,47.7015748 C127.800447,45.7589847 128.35719,43.6870506 129.78,42.26625 L145.6875,26.35875 C147.884061,24.1628516 151.444689,24.1628516 153.64125,26.35875 Z M50.22,129.78 C52.4158984,131.976561 52.4158984,135.537189 50.22,137.73375 L34.3125,153.64125 C32.1053688,155.772969 28.5970231,155.742482 26.4272705,153.57273 C24.2575179,151.402977 24.2270314,147.894631 26.35875,145.6875 L42.26625,129.78 C44.4628117,127.584101 48.0234383,127.584101 50.22,129.78 L50.22,129.78 Z M153.64125,153.64125 C151.444689,155.837149 147.884061,155.837149 145.6875,153.64125 L129.78,137.73375 C127.648281,135.526619 127.678768,132.018273 129.84852,129.84852 C132.018273,127.678768 135.526619,127.648281 137.73375,129.78 L153.64125,145.6875 C155.837149,147.884061 155.837149,151.444689 153.64125,153.64125 Z M50.22,50.23125 C48.0234383,52.4271484 44.4628117,52.4271484 42.26625,50.23125 L26.35875,34.3125 C24.8964942,32.9002061 24.3100541,30.8088118 24.8248285,28.8421463 C25.3396028,26.8754807 26.8754807,25.3396028 28.8421463,24.8248285 C30.8088118,24.3100541 32.9002061,24.8964942 34.3125,26.35875 L50.22,42.26625 C51.2779691,43.3215479 51.872555,44.7544433 51.872555,46.24875 C51.872555,47.7430567 51.2779691,49.1759521 50.22,50.23125 L50.22,50.23125 Z"/></svg>