<svg xmlns="http://www.w3.org/2000/svg" width="180" height="180" viewBox="0 0 180 180"><defs><linearGradient id="a" x1="100%" x2="0%" y1="78.109%" y2="21.891%"><stop offset="0%" stop-color="#334155"/><stop offset="100%" stop-color="#4B5563"/></linearGradient></defs><path fill="url(#a)" d="M78.7646086,56.7260507 C104.547306,56.721102 126.213854,76.0965078 129.078597,101.719558 L129.382303,101.719558 C144.913071,101.719558 157.503245,114.309734 157.503245,129.8405 C157.503245,145.371269 144.913071,157.961451 129.382303,157.961451 L33.7711019,157.961451 C15.6651319,157.975116 0.775112486,143.697236 0.0291394373,125.606634 C-0.716833611,107.516033 12.9471257,92.0607174 30.9927529,90.5836663 C38.1167033,70.302464 57.2686129,56.7288242 78.7646086,56.7260507 Z M40.6326117,97.5239147 C39.9672265,100.115557 37.5680965,101.879623 34.8959396,101.742056 C26.7628117,101.380977 19.0691857,105.442121 14.7788567,112.361024 C10.4885277,119.279928 10.2709945,127.976907 14.2100567,135.101648 C18.149119,142.226389 25.6300926,146.667088 33.7711019,146.713066 L129.382303,146.713066 C135.912791,146.697963 141.848143,142.915692 144.620266,137.002754 C147.392389,131.089817 146.503427,124.108146 142.338011,119.078553 C138.172596,114.04896 131.478814,111.874733 125.152913,113.49661 C123.455059,113.931474 121.651528,113.549958 120.275218,112.46479 C118.898907,111.379623 118.107164,109.714864 118.133926,107.962408 L118.133926,107.343748 C118.147694,87.5036609 103.396081,70.7532841 83.7133561,68.2593771 C64.0306313,65.7654702 45.5675297,78.3073643 40.6326117,97.5239147 Z M112.373437,23.3386234 C130.732637,25.5987522 145.840478,38.8598165 150.461761,56.771046 C158.154481,56.3828393 165.669711,59.1670709 171.252645,64.4736216 C176.835579,69.7801723 179.997464,77.1444867 180,84.8469942 C180.001855,95.8336529 173.60518,105.815278 163.622362,110.403306 C161.66307,106.965077 159.198423,103.840664 156.310917,101.134644 C165.306338,98.6838885 170.611837,89.40493 168.161082,80.4095097 C165.710327,71.4140894 156.431369,66.1085899 147.435948,68.5593448 C145.862979,68.9857056 144.18241,68.7087916 142.82939,67.8003042 C141.476369,66.8918169 140.583954,65.4410964 140.383215,63.8237782 C138.758534,50.6666662 129.580522,39.6797459 116.922633,35.739311 C104.264743,31.798876 90.4722709,35.6350232 81.6666898,45.5451661 C76.8602625,45.3245894 72.0444034,45.6567176 67.3137612,46.5350233 C76.14119,30.2794118 94.0142369,21.0784946 112.373437,23.3386234 Z"/></svg>