<svg xmlns="http://www.w3.org/2000/svg" width="33" height="32" viewBox="0 0 33 32"><path fill="#404040" d="M264.715694,36.6864425 C268.732222,31.2048164 267.850003,23.5542129 262.691301,19.130914 C257.5326,14.7076151 249.838077,15.0041404 245.034993,19.8113386 C240.231908,24.6185368 239.940931,32.314352 244.367298,37.4706126 C248.793665,42.6268731 256.443822,43.5037418 261.921802,39.4827273 L261.919802,39.4827273 C261.9798,39.5627355 262.043798,39.6387432 262.115795,39.7127507 L269.815496,47.4135351 C270.596397,48.1950976 271.862934,48.1955453 272.644387,47.4145352 C273.425839,46.633525 273.426287,45.3668096 272.645387,44.585247 L264.945685,36.8844627 C264.874183,36.8120747 264.797299,36.7452098 264.715694,36.6844423 L264.715694,36.6864425 Z M265.231674,28.9976593 C265.231674,32.9279812 263.135167,36.5597484 259.731887,38.5249093 C256.328607,40.4900703 252.135593,40.4900703 248.732313,38.5249093 C245.329033,36.5597484 243.232527,32.9279812 243.232527,28.9976593 C243.232527,22.9219083 248.157204,17.996539 254.2321,17.996539 C260.306997,17.996539 265.231674,22.9219083 265.231674,28.9976593 Z" transform="translate(-241 -16)"/></svg>