<svg xmlns="http://www.w3.org/2000/svg" width="180" height="180" viewBox="0 0 180 180"><defs><linearGradient id="a" x1="100%" x2="0%" y1="88.281%" y2="11.719%"><stop offset="0%" stop-color="#0369A1"/><stop offset="100%" stop-color="#2563EB"/></linearGradient></defs><path fill="url(#a)" d="M140.625,22.25 C125.091991,22.25 112.5,34.8419914 112.5,50.375 C112.5,53.4816017 109.981602,56 106.875,56 C103.768398,56 101.25,53.4816017 101.25,50.375 C101.25,28.628788 118.878788,11 140.625,11 C162.371212,11 180,28.628788 180,50.375 C180,72.121212 162.371212,89.75 140.625,89.75 L5.625,89.75 C2.51839828,89.75 0,87.2316017 0,84.125 C0,81.0183983 2.51839828,78.5 5.625,78.5 L140.625,78.5 C156.158009,78.5 168.75,65.9080086 168.75,50.375 C168.75,34.8419914 156.158009,22.25 140.625,22.25 Z M61.875,33.5 C55.6617966,33.5 50.625,38.5367966 50.625,44.75 C50.625,47.8566017 48.1066017,50.375 45,50.375 C41.8933983,50.375 39.375,47.8566017 39.375,44.75 C39.375,32.3235931 49.4485931,22.25 61.875,22.25 C74.3014069,22.25 84.375,32.3235931 84.375,44.75 C84.375,57.1764069 74.3014069,67.25 61.875,67.25 L5.625,67.25 C2.51839828,67.25 0,64.7316017 0,61.625 C0,58.5183983 2.51839828,56 5.625,56 L61.875,56 C68.0882034,56 73.125,50.9632034 73.125,44.75 C73.125,38.5367966 68.0882034,33.5 61.875,33.5 Z M0,106.625 C0,103.518398 2.51839828,101 5.625,101 L118.5975,101 C137.23711,101 152.3475,116.11039 152.3475,134.75 C152.3475,153.38961 137.23711,168.5 118.5975,168.5 C99.9578897,168.5 84.8475,153.38961 84.8475,134.75 C84.8475,131.643398 87.3658983,129.125 90.4725,129.125 C93.5791017,129.125 96.0975,131.643398 96.0975,134.75 C96.0975,147.176407 106.171093,157.25 118.5975,157.25 C131.023907,157.25 141.0975,147.176407 141.0975,134.75 C141.0975,122.323593 131.023907,112.25 118.5975,112.25 L5.625,112.25 C2.51839828,112.25 0,109.731602 0,106.625 Z"/></svg>