<svg xmlns="http://www.w3.org/2000/svg" width="800" height="800" viewBox="0 0 800 800"><path fill="#545454" d="M306.5,0 C317.079705,0 325.65625,8.57654526 325.65625,19.15625 L325.65625,38.848875 C483.695312,47.430875 613,161.67875 613,306.5 C613,306.5 613,325.65625 593.84375,325.65625 C588.135188,325.65625 580.35775,320.100938 580.35775,320.100938 L580.2045,319.947688 L579.246688,319.0665 C572.668537,313.352856 565.546749,308.297028 557.98325,303.971375 C539.793882,293.316129 519.141615,287.585257 498.0625,287.34375 C473.619125,287.34375 452.930375,295.504313 438.14175,303.971375 C430.578251,308.297028 423.456463,313.352856 416.878312,319.0665 L415.9205,319.947688 L415.805563,320.062625 C415.805563,320.062625 407.989812,325.65625 402.28125,325.65625 C396.572688,325.65625 388.79525,320.100938 388.79525,320.100938 L388.642,319.947688 L387.684188,319.0665 C381.106037,313.352856 373.984249,308.297028 366.42075,303.971375 C353.795809,296.67746 340.004338,291.622315 325.65625,289.0295 L325.65625,517.21875 L306.5,517.21875 L325.65625,517.21875 L325.65625,518.712937 L325.464687,521.892875 C324.436529,536.574163 320.558616,550.914632 314.047562,564.11325 C307.420928,577.715554 297.34115,589.340986 284.815125,597.82825 C270.48625,607.291438 252.364437,613 229.875,613 C207.385563,613 189.225437,607.32975 174.934875,597.82825 C162.406451,589.34369 152.326055,577.717546 145.702438,564.11325 C138.725415,549.950943 134.784419,534.4871 134.132062,518.712937 L134.132062,517.755125 L134.09375,517.410313 L134.09375,517.295375 C134.09375,517.295375 134.09375,517.21875 153.25,517.21875 L134.09375,517.21875 L134.09375,498.0625 C134.09375,487.482795 142.670295,478.906251 153.25,478.906251 C163.829705,478.906251 172.40625,487.482795 172.40625,498.0625 L172.40625,517.448625 L172.521187,519.134375 C173.191599,528.801512 175.728661,538.24719 179.992125,546.94925 C183.631812,554.266938 188.804,561.009937 196.198313,565.913937 C203.477688,570.779625 214.051937,574.6875 229.875,574.6875 C245.698063,574.6875 256.272312,570.779625 263.551687,565.913937 C270.946,561.009937 276.118187,554.266938 279.796187,546.94925 C284.302414,537.735114 286.871182,527.694749 287.34375,517.448625 L287.34375,289.0295 C272.995662,291.622315 259.204191,296.67746 246.57925,303.971375 C238.644043,308.520925 231.197785,313.874528 224.358,319.947688 L224.20475,320.100938 C224.20475,320.100938 216.465625,325.65625 210.71875,325.65625 C205.010188,325.65625 197.23275,320.100938 197.23275,320.100938 L197.0795,319.947688 C190.239715,313.874528 182.793457,308.520925 174.85825,303.971375 C156.668882,293.316129 136.016615,287.585257 114.9375,287.34375 C90.494125,287.34375 69.8436875,295.504313 55.01675,303.971375 C47.0815431,308.520925 39.6352846,313.874528 32.7955,319.947688 L32.64225,320.100938 C32.64225,320.100938 24.903125,325.65625 19.15625,325.65625 C0,325.65625 0,306.5 0,306.5 C0,161.67875 129.304688,47.430875 287.34375,38.848875 L287.34375,19.15625 C287.34375,8.57654526 295.920295,0 306.5,0 Z M251.981312,81.3374375 C143.442,100.493688 60.8019375,175.509562 42.2586875,267.306313 C64.6688161,255.474263 89.5962172,249.206277 114.9375,249.03125 C145.817375,249.03125 171.64,258.609375 190.106625,268.608937 C190.772422,238.068284 195.198942,207.726037 203.286125,178.268063 C212.55775,145.012812 227.806125,110.6465 251.981312,81.3374375 Z M228.419125,270.218062 C252.190547,256.557501 279.083964,249.260122 306.5,249.03125 C333.916036,249.260122 360.809453,256.557501 384.580875,270.218062 C384.05734,242.633859 380.106392,215.221747 372.818937,188.612438 C361.440125,147.809625 340.904625,108.424375 306.5,81.1075625 C272.095375,108.386062 251.559875,147.771312 240.181063,188.535813 C232.890076,215.157439 228.939094,242.582664 228.419125,270.17975 L228.419125,270.218062 Z M360.980375,81.3374375 C385.155562,110.6465 400.44225,145.012812 409.713875,178.268063 C418.640688,210.182375 422.280375,241.866812 422.893375,268.608937 C445.939835,255.953738 471.770763,249.226111 498.0625,249.03125 C527.563125,249.03125 552.46625,257.843125 570.741312,267.306312 C552.198062,175.509562 469.558,100.455375 361.018687,81.3374375 L360.980375,81.3374375 Z" transform="translate(93 93)"/></svg>