<svg xmlns="http://www.w3.org/2000/svg" width="180" height="180" viewBox="0 0 180 180"><defs><linearGradient id="a" x1="100%" x2="0%" y1="93.83%" y2="6.067%"><stop offset="0%" stop-color="#B45309"/><stop offset="100%" stop-color="#4B5563"/></linearGradient></defs><path fill="url(#a)" d="M30.9927526,107.347873 C38.7981135,85.0424547 60.9989476,71.1060982 84.4797631,73.7719248 C107.960579,76.4377513 126.4722,94.9962787 129.078595,118.483765 L129.382302,118.483765 C144.913069,118.483765 157.503243,131.073939 157.503243,146.604707 C157.503243,162.135474 144.913069,174.725668 129.382302,174.725668 L33.7711016,174.725668 C15.6651317,174.739323 0.775112477,160.461441 0.029139437,142.37084 C-0.716833603,124.280239 12.9471256,108.824924 30.9927526,107.347873 Z M78.7646077,84.7386352 C60.8037233,84.7433851 45.1202674,96.8969068 40.6326113,114.288121 C39.967226,116.879763 37.5680961,118.64383 34.8959392,118.506262 C26.7628114,118.145183 19.0691855,122.206327 14.7788566,129.12523 C10.4885276,136.044134 10.2709944,144.741113 14.2100565,151.865854 C18.1491188,158.990595 25.6300923,163.431294 33.7711016,163.477272 L129.382302,163.477272 C138.700763,163.477272 146.254866,155.923167 146.254866,146.604707 C146.244522,141.387294 143.825797,136.466931 139.70091,133.272121 C135.576022,130.077312 130.207114,128.965996 125.152912,130.260816 C123.455057,130.69568 121.651526,130.314164 120.275217,129.228996 C118.898906,128.143828 118.107163,126.479071 118.133925,124.726614 C118.299703,114.178445 114.225176,104.005034 106.823952,96.4875055 C99.4227287,88.9699769 89.3140791,84.7373331 78.7646077,84.7386352 Z M146.023982,104.120611 C148.153771,103.180411 150.642683,103.649588 152.283996,105.300668 L160.236598,113.25327 C161.363063,114.380484 161.958455,115.932658 161.87481,117.524052 C161.791166,119.115446 161.036338,120.596651 159.797912,121.599566 C155.332306,116.177848 149.426909,111.959707 142.677883,109.541306 C142.563822,107.216017 143.894193,105.06081 146.023982,104.120611 Z M111.86857,39.7625066 C125.941085,39.5008436 138.698041,48.0010881 143.875253,61.089274 C149.052466,74.1774599 145.562461,89.1044138 135.118974,98.5403938 C133.499207,94.9859068 131.553238,91.6001455 129.314811,88.4393517 C135.15122,81.8740653 136.632381,72.5121638 133.107696,64.465845 C129.583012,56.4195263 121.697288,51.1607819 112.914314,50.9995056 C104.131339,50.8382294 96.0578704,55.803925 92.2401628,63.71542 C88.5057018,62.8830402 84.6362603,62.3881116 80.6768317,62.2643795 C85.3639129,48.9927778 97.7960548,40.0241696 111.86857,39.7625066 Z M174.375808,67.866071 C177.481961,67.866071 179.999996,70.3841059 179.999996,73.4902592 C179.999996,76.5964126 177.481961,79.1144475 174.375808,79.1144475 L163.127431,79.1144475 C160.021279,79.1144475 157.503243,76.5964126 157.503243,73.4902592 C157.503243,70.3841059 160.021279,67.866071 163.127431,67.866071 Z M64.8513863,25.8319082 C67.0208258,23.6624687 70.5286651,23.6319866 72.7354779,25.7633976 L80.6993285,33.7159998 C82.1219334,35.1386047 82.6775239,37.2120965 82.1568144,39.155411 C81.6361049,41.0987254 80.1182035,42.6166268 78.174889,43.1373363 C76.2315746,43.6580459 74.1580827,43.1024554 72.7354779,41.6798504 L64.7828757,33.7159998 C62.6514646,31.5091871 62.6819468,28.0013477 64.8513863,25.8319082 Z M152.283996,25.7633976 C153.696087,24.3013528 155.787179,23.7149974 157.753561,24.2296974 C159.719943,24.7443975 161.255599,26.2800537 161.770299,28.2464355 C162.284999,30.2128172 161.698643,32.3039097 160.236598,33.7159998 L152.283996,41.6798504 C150.08484,43.879007 146.519302,43.8790069 144.320147,41.6798503 C142.12099,39.4806938 142.120989,35.9151564 144.320146,33.7159998 Z M112.509737,6 C115.61589,6 118.133925,8.51803486 118.133925,11.6241883 L118.133925,22.8725648 C118.133925,25.9787182 115.61589,28.4967531 112.509737,28.4967531 C109.403584,28.4967531 106.885549,25.9787182 106.885549,22.8725648 L106.885549,11.6241883 C106.885549,8.51803486 109.403584,6 112.509737,6 Z"/></svg>