<svg xmlns="http://www.w3.org/2000/svg" width="180" height="180" viewBox="0 0 180 180"><defs><linearGradient id="a" x1="99.994%" x2=".006%" y1="100%" y2="0%"><stop offset="0%" stop-color="#E2E8F0"/><stop offset="100%" stop-color="#F3F4F6"/></linearGradient></defs><path fill="url(#a)" d="M67.5025839,3.12049307 C69.749532,5.85081962 70.106071,9.67470029 68.4026183,12.7733626 C61.8982853,24.7154105 58.5014975,38.1013852 58.5247402,51.6998526 C58.5247402,96.9378342 95.4036519,133.569236 140.855392,133.569236 C146.784369,133.569236 152.55584,132.950463 158.102302,131.769168 C161.578245,131.016435 165.167236,132.416584 167.215151,135.324304 C169.389429,138.365148 169.2463,142.48819 166.866387,145.370938 C148.996031,167.322453 122.179363,180.044664 93.8735933,179.999882 C42.009108,179.999882 8.52651283e-14,138.215664 8.52651283e-14,86.7336937 C8.52651283e-14,47.9872105 23.7834104,14.7534384 57.6472066,0.667899191 C61.1122577,-0.796535453 65.128055,0.202829631 67.5025839,3.12049307 Z M54.6545921,14.7421879 C28.1249881,28.9727051 11.5592117,56.6284325 11.5316914,86.7336937 C11.5316914,131.960425 48.4218535,168.591951 93.8735933,168.591951 C115.858173,168.629911 136.944325,159.87136 152.432085,144.268396 C148.64069,144.740914 144.781792,144.977173 140.855392,144.977173 C88.9909064,144.977173 46.9930488,103.193074 46.9930488,51.711103 C46.9930488,38.5818505 49.715653,26.082622 54.6545921,14.7421879 Z M123.754737,33.7353101 C124.807348,33.7353101 125.741443,34.4099759 126.072326,35.409229 L130.426243,48.4822294 C132.372567,54.3099525 136.940242,58.8776274 142.767965,60.8239519 L155.840965,65.1778685 C156.840219,65.5087518 157.514884,66.4428459 157.514884,67.4954572 C157.514884,68.5480686 156.840219,69.4821627 155.840965,69.813046 L142.767965,74.1669626 C136.940507,76.1084978 132.367778,80.6812269 130.426243,86.508685 L126.072326,99.5816855 C125.741443,100.580939 124.807348,101.255604 123.754737,101.255604 C122.702126,101.255604 121.768032,100.580939 121.437148,99.5816855 L117.083232,86.508685 C115.141697,80.6812269 110.568967,76.1084978 104.741509,74.1669626 L91.6685089,69.813046 C90.6692558,69.4821627 89.99459,68.5480686 89.99459,67.4954572 C89.99459,66.4428459 90.6692558,65.5087518 91.6685089,65.1778685 L104.741509,60.8239519 C110.568967,58.8824167 115.141697,54.3096876 117.083232,48.4822294 L121.437148,35.409229 C121.768032,34.4099759 122.702126,33.7353101 123.754737,33.7353101 Z M157.506029,0.0097193911 C158.20101,0.0097193911 158.819684,0.450028397 159.047338,1.10666599 L161.949949,9.81449931 C163.243749,13.7071483 166.292615,16.756015 170.185264,18.0498145 L178.893098,20.9524257 C179.549735,21.1800794 179.990044,21.7987533 179.990044,22.4937346 C179.990044,23.188716 179.549735,23.8073899 178.893098,24.0350436 L170.185264,26.9376548 C166.295741,28.2315575 163.243852,31.283447 161.949949,35.17297 L159.047338,43.8808033 C158.819684,44.5374409 158.20101,44.9777499 157.506029,44.9777499 C156.811048,44.9777499 156.192374,44.5374409 155.96472,43.8808033 L153.062109,35.17297 C151.768206,31.283447 148.716317,28.2315575 144.826794,26.9376548 L136.11896,24.0350436 C135.462323,23.8073899 135.022014,23.188716 135.022014,22.4937346 C135.022014,21.7987533 135.462323,21.1800794 136.11896,20.9524257 L144.826794,18.0498145 C148.719443,16.756015 151.768309,13.7071483 153.062109,9.81449931 L155.96472,1.11791642 L155.96472,1.10666599 C156.192374,0.450028397 156.811048,0.0097193911 157.506029,0.0097193911 Z"/></svg>