<svg xmlns="http://www.w3.org/2000/svg" width="180" height="180" viewBox="0 0 180 180"><defs><linearGradient id="a" x1="100%" x2="0%" y1="94.076%" y2="5.924%"><stop offset="0%" stop-color="#0369A1"/><stop offset="100%" stop-color="#2563EB"/></linearGradient></defs><path fill="url(#a)" d="M46.7218825,130.069159 C48.1383049,130.541479 49.3088846,131.557547 49.9757677,132.893545 C50.6426508,134.229542 50.7511293,135.775869 50.2773078,137.191905 L44.6516349,154.07045 C43.5872192,156.901085 40.4757426,158.383829 37.6070111,157.427498 C34.7382797,156.471168 33.1386649,153.417918 33.9853593,150.514703 L39.6110321,133.636158 C40.5899499,130.687565 43.7733859,129.090666 46.7218825,130.069159 L46.7218825,130.069159 Z M114.229956,130.069159 C115.646379,130.541479 116.816959,131.557547 117.483842,132.893545 C118.150725,134.229542 118.259203,135.775869 117.785382,137.191905 L112.159709,154.07045 C111.095293,156.901085 107.983817,158.383829 105.115085,157.427498 C102.246354,156.471168 100.646739,153.417918 101.493433,150.514703 L107.119106,133.636158 C108.098024,130.687565 111.28146,129.090666 114.229956,130.069159 L114.229956,130.069159 Z M74.8502467,146.947704 C76.266669,147.420024 77.4372488,148.436093 78.1041318,149.77209 C78.7710149,151.108087 78.8794934,152.654415 78.4056719,154.07045 L72.7799991,170.948995 C71.7155833,173.77963 68.6041067,175.262374 65.7353753,174.306044 C62.8666439,173.349713 61.267029,170.296463 62.1137234,167.393249 L67.7393962,150.514703 C68.7183141,147.56611 71.9017501,145.969211 74.8502467,146.947704 L74.8502467,146.947704 Z M142.35832,146.947704 C143.774743,147.420024 144.945323,148.436093 145.612206,149.77209 C146.279089,151.108087 146.387567,152.654415 145.913746,154.07045 L140.288073,170.948995 C139.711048,172.927546 138.09848,174.432208 136.084904,174.87091 C134.071327,175.309611 131.979061,174.612126 130.631396,173.052909 C129.283732,171.493694 128.896394,169.322336 129.621797,167.393249 L135.24747,150.514703 C136.226388,147.56611 139.409824,145.969211 142.35832,146.947704 Z M150.763076,51.3251194 C145.967185,27.1469266 125.995486,8.90440016 101.48491,6.31351222 C76.9743343,3.72262428 53.6305837,17.3864956 43.8865434,40.0277465 C29.3815205,38.3566141 15.1425573,44.8489334 6.89124138,56.8959209 C-1.36007449,68.9429083 -2.26916967,84.566876 4.52925404,97.489705 C11.3276777,110.412534 24.7175605,118.512755 39.3184971,118.535531 L146.206281,118.535531 C163.976675,118.555799 178.719407,104.793378 179.921571,87.062078 C181.123736,69.3307775 168.37356,53.7040283 150.763076,51.3251194 L150.763076,51.3251194 Z M95.5752254,17.2642132 C118.497092,17.2594574 137.760519,34.4847274 140.310576,57.2663673 C140.627386,60.1297276 143.055725,62.2911451 145.936248,62.273668 L146.206281,62.273668 C158.634174,62.273668 168.708972,72.3493784 168.708972,84.7783949 C168.708972,97.2074133 158.634174,107.283122 146.206281,107.283122 L39.3184971,107.283122 C28.4492427,107.277718 18.5557969,101.00997 13.9068609,91.1842091 C9.25792501,81.3584483 10.6855701,69.7332985 17.5738134,61.3246357 C24.4620568,52.9159728 35.5780341,49.2287873 46.1255612,51.8539804 C48.9853993,52.5673523 51.9109494,50.9522633 52.8313632,48.1519529 C58.9300184,29.7162007 76.1585041,17.2664847 95.5752254,17.2642132 Z"/></svg>