<svg xmlns="http://www.w3.org/2000/svg" width="180" height="180" viewBox="0 0 180 180"><defs><linearGradient id="a" x1="88.232%" x2="11.768%" y1="100%" y2="0%"><stop offset="0%" stop-color="#404040"/><stop offset="100%" stop-color="#57534E"/></linearGradient></defs><path fill="url(#a)" d="M89.726063,180 C86.6194613,180 84.101063,177.481602 84.101063,174.375 L84.101063,159.82875 L76.833563,167.1075 C74.634089,169.303867 71.0705555,169.301349 68.8741881,167.101875 C66.6778207,164.902401 66.6803391,161.338867 68.879813,159.1425 L84.101063,143.92125 L84.101063,99.7425 L45.851063,121.82625 L40.271063,142.63875 C39.4633465,145.639727 36.3757902,147.417716 33.374813,146.61 C30.3738357,145.802284 28.5958465,142.714727 29.403563,139.71375 L32.069813,129.79125 L19.469813,137.05875 C16.7818507,138.587008 13.3643229,137.659171 11.8182687,134.981405 C10.2722146,132.30364 11.1773614,128.880032 13.844813,127.31625 L26.444813,120.04875 L16.499813,117.3825 C14.5585211,116.859999 13.0434443,115.341521 12.5252974,113.399063 C12.0071505,111.456604 12.5646523,109.38527 13.9877974,107.965313 C15.4109424,106.545355 17.4835211,105.992499 19.424813,106.515 L40.214813,112.08375 L78.476063,90 L40.226063,67.91625 L19.413563,73.485 C16.4347791,74.2274059 13.4108854,72.4443598 12.6187389,69.4784158 C11.8265923,66.5124717 13.5587894,63.4591654 16.511063,62.6175 L26.444813,59.95125 L13.844813,52.68375 C12.0900898,51.6860911 11.0044511,49.8247132 11,47.8062095 C10.9955762,45.7877059 12.0730203,43.9215727 13.82334,42.9162083 C15.5736597,41.9108439 17.7284794,41.9204004 19.469813,42.94125 L32.069813,50.20875 L29.403563,40.275 C28.8464415,38.3208088 29.3866192,36.2180595 30.8166324,34.7743455 C32.2466456,33.3306316 34.3441487,32.7704289 36.3035632,33.3088919 C38.2629778,33.847355 39.7796441,35.4007609 40.271063,37.3725 L45.839813,58.17375 L84.101063,80.2575 L84.101063,36.07875 L68.879813,20.8575 C67.4570027,19.4366994 66.9002599,17.3647653 67.4193042,15.4221752 C67.9383485,13.4795851 69.4543247,11.9614646 71.3961793,11.4396751 C73.3380338,10.9178856 75.4107528,11.4716994 76.833563,12.8925 L84.101063,20.17125 L84.101063,5.625 C84.101063,2.51839828 86.6194613,0 89.726063,0 C92.8326647,0 95.351063,2.51839828 95.351063,5.625 L95.351063,20.17125 L102.629813,12.8925 C104.829287,10.6961326 108.392821,10.698651 110.589188,12.898125 C112.785555,15.097599 112.783037,18.6611326 110.583563,20.8575 L95.351063,36.07875 L95.351063,80.2575 L133.601063,58.17375 L139.181063,37.36125 C139.988779,34.3602727 143.076336,32.5822836 146.077313,33.39 C149.07829,34.1977164 150.856279,37.2852727 150.048563,40.28625 L147.393563,50.20875 L159.993563,42.94125 C162.681525,41.4129921 166.099053,42.3408287 167.645107,45.0185945 C169.191161,47.6963604 168.286015,51.1199675 165.618563,52.68375 L153.018563,59.95125 L162.952313,62.6175 C165.95329,63.4252164 167.731279,66.5127727 166.923563,69.51375 C166.115847,72.5147273 163.02829,74.2927164 160.027313,73.485 L139.237313,67.91625 L100.976063,90 L139.226063,112.08375 L160.027313,106.515 C163.02829,105.71039 166.113328,107.490898 166.917938,110.491875 C167.722548,113.492852 165.94204,116.57789 162.941063,117.3825 L153.007313,120.04875 L165.607313,127.31625 C168.274765,128.880032 169.179911,132.30364 167.633857,134.981405 C166.087803,137.659171 162.670275,138.587008 159.982313,137.05875 L147.382313,129.79125 L150.037313,139.725 C150.594434,141.679191 150.054257,143.781941 148.624244,145.225654 C147.19423,146.669368 145.096727,147.229571 143.137313,146.691108 C141.177898,146.152645 139.661232,144.599239 139.169813,142.6275 L133.601063,121.82625 L95.351063,99.7425 L95.351063,143.92125 L110.572313,159.1425 C112.771787,161.338867 112.774305,164.902401 110.577938,167.101875 C108.381571,169.301349 104.818037,169.303867 102.618563,167.1075 L95.339813,159.82875 L95.339813,174.375 C95.339813,177.481602 92.8214147,180 89.714813,180 L89.726063,180 Z"/></svg>