<svg xmlns="http://www.w3.org/2000/svg" width="22" height="20" viewBox="0 0 22 20"><path d="M14.2552257,0.924413796 C14.3302497,0.680458196 14.269426,0.41500909 14.0956662,0.228058593 C13.9219065,0.0411080958 13.661609,-0.0389415632 13.4128252,0.0180635495 C13.1640415,0.0750686623 12.9645677,0.260468114 12.8895437,0.50442372 L7.17539299,19.0754134 C7.05941594,19.4525361 7.2711163,19.8522724 7.64823896,19.9682495 C8.02536163,20.0842265 8.42509793,19.8725262 8.541075,19.4954035 L14.2552257,0.924413796 L14.2552257,0.924413796 Z M6.22112982,4.49432943 C6.35547193,4.62833236 6.43097313,4.81028302 6.43097313,5.00003177 C6.43097313,5.18978052 6.35547193,5.37173118 6.22112982,5.50573411 L1.72552177,9.99991362 L6.22112982,14.4940931 C6.5004215,14.7733848 6.5004215,15.2262061 6.22112981,15.5054978 C5.94183813,15.7847895 5.48901684,15.7847895 5.20972515,15.5054978 L0.209843304,10.505616 C0.0755011915,10.371613 0,10.1896624 0,9.99991362 C0,9.81016487 0.0755011915,9.62821421 0.209843304,9.49421128 L5.20972515,4.49432943 C5.34372807,4.35998732 5.52567874,4.28448613 5.71542749,4.28448613 C5.90517623,4.28448613 6.0871269,4.35998732 6.22112982,4.49432943 Z M15.2094888,4.49432943 C15.0751467,4.62833236 14.9996455,4.81028302 14.9996455,5.00003177 C14.9996455,5.18978052 15.0751467,5.37173118 15.2094888,5.50573411 L19.7050969,9.99991362 L15.2094888,14.4940931 C15.0288188,14.6747632 14.9582591,14.9380955 15.0243889,15.1848954 C15.0905188,15.4316952 15.2832914,15.6244679 15.5300913,15.6905977 C15.7768911,15.7567275 16.0402235,15.6861678 16.2208935,15.5054978 L21.2207754,10.505616 C21.3551175,10.371613 21.4306187,10.1896624 21.4306187,9.99991362 C21.4306187,9.81016487 21.3551175,9.62821421 21.2207754,9.49421128 L16.2208935,4.49432943 C16.0868906,4.35998732 15.9049399,4.28448613 15.7151912,4.28448613 C15.5254424,4.28448613 15.3434918,4.35998732 15.2094888,4.49432943 L15.2094888,4.49432943 Z"/></svg>