<svg xmlns="http://www.w3.org/2000/svg" width="22" height="22" viewBox="0 0 22 22"><path fill-opacity=".6" d="M3.88888889,16 L18.1111111,16 C18.6,16 19,15.5875 19,15.0833333 C19,14.5791667 18.6,14.1666667 18.1111111,14.1666667 L3.88888889,14.1666667 C3.4,14.1666667 3,14.5791667 3,15.0833333 C3,15.5875 3.4,16 3.88888889,16 Z M3.88888889,11.4166667 L18.1111111,11.4166667 C18.6,11.4166667 19,11.0041667 19,10.5 C19,9.99583333 18.6,9.58333333 18.1111111,9.58333333 L3.88888889,9.58333333 C3.4,9.58333333 3,9.99583333 3,10.5 C3,11.0041667 3.4,11.4166667 3.88888889,11.4166667 Z M3,5.91666667 C3,6.42083333 3.4,6.83333333 3.88888889,6.83333333 L18.1111111,6.83333333 C18.6,6.83333333 19,6.42083333 19,5.91666667 C19,5.4125 18.6,5 18.1111111,5 L3.88888889,5 C3.4,5 3,5.4125 3,5.91666667 Z"/></svg>