<svg xmlns="http://www.w3.org/2000/svg" width="30" height="20" viewBox="0 0 30 20"><g fill="#17668B"><path d="M29.0909091,10 C29.0909091,10 23.6363636,0 14.5454545,0 C5.45454545,0 0,10 0,10 C0,10 5.45454545,20 14.5454545,20 C23.6363636,20 29.0909091,10 29.0909091,10 Z M2.13272727,10 C3.01184483,8.66386091 4.02298345,7.41942946 5.15090909,6.28545455 C7.49090909,3.94181818 10.6909091,1.81818182 14.5454545,1.81818182 C18.4,1.81818182 21.5981818,3.94181818 23.9418182,6.28545455 C25.0697438,7.41942946 26.0808824,8.66386091 26.96,10 C26.8545455,10.1581818 26.7381818,10.3327273 26.6054545,10.5236364 C25.9963636,11.3963636 25.0963636,12.56 23.9418182,13.7145455 C21.5981818,16.0581818 18.3981818,18.1818182 14.5454545,18.1818182 C10.6909091,18.1818182 7.49272727,16.0581818 5.14909091,13.7145455 C4.0211744,12.5805623 3.01003655,11.3361318 2.13090909,10 L2.13272727,10 Z"/><path d="M14.5454545,5.45454545 C12.0350693,5.45454545 10,7.48961477 10,10 C10,12.5103852 12.0350693,14.5454545 14.5454545,14.5454545 C17.0558398,14.5454545 19.0909091,12.5103852 19.0909091,10 C19.0909091,7.48961477 17.0558398,5.45454545 14.5454545,5.45454545 Z M8.18181818,10 C8.18181818,6.48546068 11.0309152,3.63636364 14.5454545,3.63636364 C18.0599939,3.63636364 20.9090909,6.48546068 20.9090909,10 C20.9090909,13.5145393 18.0599939,16.3636364 14.5454545,16.3636364 C11.0309152,16.3636364 8.18181818,13.5145393 8.18181818,10 L8.18181818,10 Z"/></g></svg>