<svg xmlns="http://www.w3.org/2000/svg" width="800" height="800" viewBox="0 0 800 800"><g fill="none" fill-rule="evenodd"><g transform="translate(40 60)"><circle cx="100" cy="100" r="90" stroke="#545454" stroke-width="20"/><circle cx="100" cy="100" r="60" fill="#545454"/></g><circle cx="100" cy="100" r="90" stroke="#545454" stroke-width="20" transform="translate(40 300)"/><g fill="#545454" fill-rule="nonzero" transform="translate(290.664 111.238)"><polygon points="0 0 21.055 0 21.055 82.646 70.957 82.646 70.957 100.762 0 100.762"/><path d="M146.083984 35.6835938C152.373047 43.5677083 155.517578 52.8873698 155.517578 63.6425781 155.517578 74.5800781 152.373047 83.9339193 146.083984 91.7041016 139.794922 99.4742839 130.247396 103.359375 117.441406 103.359375 104.635417 103.359375 95.0878906 99.4742839 88.7988281 91.7041016 82.5097656 83.9339193 79.3652344 74.5800781 79.3652344 63.6425781 79.3652344 52.8873698 82.5097656 43.5677083 88.7988281 35.6835938 95.0878906 27.7994792 104.635417 23.8574219 117.441406 23.8574219 130.247396 23.8574219 139.794922 27.7994792 146.083984 35.6835938ZM117.373047 40.3320312C111.676432 40.3320312 107.290039 42.3486328 104.213867 46.3818359 101.137695 50.4150391 99.5996094 56.1686198 99.5996094 63.6425781 99.5996094 71.1165365 101.137695 76.8815104 104.213867 80.9375 107.290039 84.9934896 111.676432 87.0214844 117.373047 87.0214844 123.069661 87.0214844 127.444661 84.9934896 130.498047 80.9375 133.551432 76.8815104 135.078125 71.1165365 135.078125 63.6425781 135.078125 56.1686198 133.551432 50.4150391 130.498047 46.3818359 127.444661 42.3486328 123.069661 40.3320312 117.373047 40.3320312ZM206.923828 44.2285156C199.085286 44.2285156 193.821615 46.780599 191.132812 51.8847656 189.628906 54.7558594 188.876953 59.1764323 188.876953 65.1464844L188.876953 100.761719 169.257812 100.761719 169.257812 26.25 187.851562 26.25 187.851562 39.2382812C190.859375 34.2708333 193.479818 30.875651 195.712891 29.0527344 199.358724 25.999349 204.098307 24.4726562 209.931641 24.4726562 210.296224 24.4726562 210.603841 24.4840495 210.854492 24.5068359 211.105143 24.5296224 211.663411 24.5638021 212.529297 24.609375L212.529297 44.5703125C211.298828 44.4335938 210.205078 44.3424479 209.248047 44.296875 208.291016 44.2513021 207.516276 44.2285156 206.923828 44.2285156ZM287.724609 78.8867188C287.223307 83.3072917 284.921875 87.796224 280.820312 92.3535156 274.440104 99.5996094 265.507812 103.222656 254.023438 103.222656 244.544271 103.222656 236.181641 100.169271 228.935547 94.0625 221.689453 87.9557292 218.066406 78.0208333 218.066406 64.2578125 218.066406 51.3606771 221.336263 41.4713542 227.875977 34.5898438 234.41569 27.7083333 242.903646 24.2675781 253.339844 24.2675781 259.53776 24.2675781 265.120443 25.4296875 270.087891 27.7539062 275.055339 30.078125 279.156901 33.7467448 282.392578 38.7597656 285.309245 43.1803385 287.200521 48.3072917 288.066406 54.140625 288.567708 57.5585938 288.772786 62.4804688 288.681641 68.90625L237.685547 68.90625C237.958984 76.3802083 240.30599 81.6210938 244.726562 84.6289062 247.415365 86.4973958 250.651042 87.4316406 254.433594 87.4316406 258.44401 87.4316406 261.702474 86.2923177 264.208984 84.0136719 265.576172 82.7832031 266.783854 81.0742188 267.832031 78.8867188L287.724609 78.8867188ZM268.447266 56.0546875C268.128255 50.9049479 266.567383 46.9970703 263.764648 44.3310547 260.961914 41.6650391 257.486979 40.3320312 253.339844 40.3320312 248.828125 40.3320312 245.330404 41.7447917 242.84668 44.5703125 240.362956 47.3958333 238.802083 51.2239583 238.164062 56.0546875L268.447266 56.0546875ZM343.642578 46.7578125C342.001953 43.1575521 338.789062 41.3574219 334.003906 41.3574219 328.44401 41.3574219 324.707031 43.1575521 322.792969 46.7578125 321.744792 48.8085938 321.220703 51.8619792 321.220703 55.9179688L321.220703 100.761719 301.464844 100.761719 301.464844 26.3867188 320.400391 26.3867188 320.400391 37.2558594C322.815755 33.3821615 325.094401 30.625 327.236328 28.984375 331.01888 26.0677083 335.917969 24.609375 341.933594 24.609375 347.630208 24.609375 352.233073 25.8626302 355.742188 28.3691406 358.567708 30.6933594 360.709635 33.6783854 362.167969 37.3242188 364.720052 32.9492188 367.88737 29.7363281 371.669922 27.6855469 375.680339 25.6347656 380.146484 24.609375 385.068359 24.609375 388.349609 24.609375 391.585286 25.2473958 394.775391 26.5234375 397.965495 27.7994792 400.859375 30.0325521 403.457031 33.2226562 405.553385 35.8203125 406.966146 39.0104167 407.695312 42.7929688 408.151042 45.2994792 408.378906 48.968099 408.378906 53.7988281L408.242188 100.761719 388.28125 100.761719 388.28125 53.3203125C388.28125 50.4947917 387.825521 48.1705729 386.914062 46.3476562 385.182292 42.8841146 381.992188 41.1523438 377.34375 41.1523438 371.966146 41.1523438 368.251953 43.3854167 366.201172 47.8515625 365.152995 50.2213542 364.628906 53.0696615 364.628906 56.3964844L364.628906 100.761719 345.009766 100.761719 345.009766 56.3964844C345.009766 51.9759115 344.554036 48.7630208 343.642578 46.7578125Z"/></g><g fill="#545454" fill-rule="nonzero" transform="translate(289.023 351.238)"><polygon points="0 0 20.918 0 20.918 100.762 0 100.762"/><path d="M101.376953 34.2480469C107.392578 40.6738281 110.400391 50.1074219 110.400391 62.5488281 110.400391 75.6738281 107.449544 85.6770833 101.547852 92.5585938 95.6461589 99.4401042 88.046875 102.880859 78.75 102.880859 72.8255208 102.880859 67.9036458 101.39974 63.984375 98.4375 61.8424479 96.796875 59.7460938 94.4042969 57.6953125 91.2597656L57.6953125 130.087891 38.4179688 130.087891 38.4179688 26.25 57.0800781 26.25 57.0800781 37.2558594C59.1764323 34.0201823 61.4095052 31.468099 63.7792969 29.5996094 68.108724 26.2727865 73.2584635 24.609375 79.2285156 24.609375 87.9329427 24.609375 95.3157552 27.8222656 101.376953 34.2480469ZM90.3027344 63.5058594C90.3027344 57.7636719 88.992513 52.6822917 86.3720703 48.2617188 83.7516276 43.8411458 79.5019531 41.6308594 73.6230469 41.6308594 66.5592448 41.6308594 61.7057292 44.9804688 59.0625 51.6796875 57.6953125 55.234375 57.0117188 59.7460938 57.0117188 65.2148438 57.0117188 73.8736979 59.313151 79.9576823 63.9160156 83.4667969 66.6503906 85.5175781 69.8860677 86.5429688 73.6230469 86.5429688 79.046224 86.5429688 83.1819661 84.4466146 86.0302734 80.2539062 88.8785807 76.0611979 90.3027344 70.4785156 90.3027344 63.5058594ZM175.820312 29.6679688C181.653646 33.4049479 185.003255 39.8307292 185.869141 48.9453125L166.386719 48.9453125C166.113281 46.4388021 165.406901 44.4563802 164.267578 42.9980469 162.125651 40.3548177 158.479818 39.0332031 153.330078 39.0332031 149.091797 39.0332031 146.072591 39.6940104 144.272461 41.015625 142.472331 42.3372396 141.572266 43.8867188 141.572266 45.6640625 141.572266 47.8971354 142.529297 49.514974 144.443359 50.5175781 146.357422 51.5657552 153.125 53.3658854 164.746094 55.9179688 172.49349 57.7408854 178.304036 60.4980469 182.177734 64.1894531 186.005859 67.9264323 187.919922 72.5976562 187.919922 78.203125 187.919922 85.5859375 185.174154 91.6129557 179.682617 96.2841797 174.191081 100.955404 165.703125 103.291016 154.21875 103.291016 142.50651 103.291016 133.859049 100.818685 128.276367 95.8740234 122.693685 90.929362 119.902344 84.6289062 119.902344 76.9726562L139.658203 76.9726562C140.068359 80.4361979 140.957031 82.8971354 142.324219 84.3554688 144.739583 86.953125 149.205729 88.2519531 155.722656 88.2519531 159.550781 88.2519531 162.592773 87.6822917 164.848633 86.5429688 167.104492 85.4036458 168.232422 83.6946615 168.232422 81.4160156 168.232422 79.2285156 167.320964 77.5651042 165.498047 76.4257812 163.67513 75.2864583 156.907552 73.3268229 145.195312 70.546875 136.764323 68.4505208 130.817057 65.8300781 127.353516 62.6855469 123.889974 59.5865885 122.158203 55.1204427 122.158203 49.2871094 122.158203 42.405599 124.858398 36.492513 130.258789 31.5478516 135.65918 26.6031901 143.258464 24.1308594 153.056641 24.1308594 162.353516 24.1308594 169.941406 25.9765625 175.820312 29.6679688ZM250.126953 90.234375C249.944661 90.4622396 249.488932 91.1458333 248.759766 92.2851562 248.030599 93.4244792 247.164714 94.4270833 246.162109 95.2929688 243.108724 98.0273438 240.157878 99.8958333 237.30957 100.898438 234.461263 101.901042 231.123047 102.402344 227.294922 102.402344 216.266276 102.402344 208.837891 98.4375 205.009766 90.5078125 202.867839 86.1328125 201.796875 79.6842448 201.796875 71.1621094L201.796875 26.25 221.757812 26.25 221.757812 71.1621094C221.757812 75.4003906 222.259115 78.5904948 223.261719 80.7324219 225.039062 84.514974 228.525391 86.40625 233.720703 86.40625 240.374349 86.40625 244.931641 83.7174479 247.392578 78.3398438 248.66862 75.4231771 249.306641 71.5722656 249.306641 66.7871094L249.306641 26.25 269.0625 26.25 269.0625 100.761719 250.126953 100.761719 250.126953 90.234375ZM329.697266 46.7578125C328.056641 43.1575521 324.84375 41.3574219 320.058594 41.3574219 314.498698 41.3574219 310.761719 43.1575521 308.847656 46.7578125 307.799479 48.8085938 307.275391 51.8619792 307.275391 55.9179688L307.275391 100.761719 287.519531 100.761719 287.519531 26.3867188 306.455078 26.3867188 306.455078 37.2558594C308.870443 33.3821615 311.149089 30.625 313.291016 28.984375 317.073568 26.0677083 321.972656 24.609375 327.988281 24.609375 333.684896 24.609375 338.28776 25.8626302 341.796875 28.3691406 344.622396 30.6933594 346.764323 33.6783854 348.222656 37.3242188 350.77474 32.9492188 353.942057 29.7363281 357.724609 27.6855469 361.735026 25.6347656 366.201172 24.609375 371.123047 24.609375 374.404297 24.609375 377.639974 25.2473958 380.830078 26.5234375 384.020182 27.7994792 386.914062 30.0325521 389.511719 33.2226562 391.608073 35.8203125 393.020833 39.0104167 393.75 42.7929688 394.205729 45.2994792 394.433594 48.968099 394.433594 53.7988281L394.296875 100.761719 374.335938 100.761719 374.335938 53.3203125C374.335938 50.4947917 373.880208 48.1705729 372.96875 46.3476562 371.236979 42.8841146 368.046875 41.1523438 363.398438 41.1523438 358.020833 41.1523438 354.306641 43.3854167 352.255859 47.8515625 351.207682 50.2213542 350.683594 53.0696615 350.683594 56.3964844L350.683594 100.761719 331.064453 100.761719 331.064453 56.3964844C331.064453 51.9759115 330.608724 48.7630208 329.697266 46.7578125Z"/></g><circle cx="100" cy="100" r="90" stroke="#545454" stroke-width="20" transform="translate(40 540)"/><g fill="#545454" fill-rule="nonzero" transform="translate(290.664 591.238)"><path d="M43.4082031 100.761719 0 100.761719 0 0 43.4082031 0C49.6516927.0911458333 54.8470052.8203125 58.9941406 2.1875 66.0579427 4.51171875 71.7773438 8.77278646 76.1523438 14.9707031 79.6614583 19.983724 82.0540365 25.406901 83.3300781 31.2402344 84.6061198 37.0735677 85.2441406 42.6334635 85.2441406 47.9199219 85.2441406 61.3183594 82.5553385 72.6660156 77.1777344 81.9628906 69.8860677 94.4954427 58.6295573 100.761719 43.4082031 100.761719ZM59.0625 25.703125C55.8268229 20.234375 49.4238281 17.5 39.8535156 17.5L20.4394531 17.5 20.4394531 83.2617188 39.8535156 83.2617188C49.7884115 83.2617188 56.7154948 78.3626302 60.6347656 68.5644531 62.7766927 63.186849 63.8476562 56.7838542 63.8476562 49.3554688 63.8476562 39.1015625 62.2526042 31.2174479 59.0625 25.703125ZM161.669922 35.6835938C167.958984 43.5677083 171.103516 52.8873698 171.103516 63.6425781 171.103516 74.5800781 167.958984 83.9339193 161.669922 91.7041016 155.380859 99.4742839 145.833333 103.359375 133.027344 103.359375 120.221354 103.359375 110.673828 99.4742839 104.384766 91.7041016 98.0957031 83.9339193 94.9511719 74.5800781 94.9511719 63.6425781 94.9511719 52.8873698 98.0957031 43.5677083 104.384766 35.6835938 110.673828 27.7994792 120.221354 23.8574219 133.027344 23.8574219 145.833333 23.8574219 155.380859 27.7994792 161.669922 35.6835938ZM132.958984 40.3320312C127.26237 40.3320312 122.875977 42.3486328 119.799805 46.3818359 116.723633 50.4150391 115.185547 56.1686198 115.185547 63.6425781 115.185547 71.1165365 116.723633 76.8815104 119.799805 80.9375 122.875977 84.9934896 127.26237 87.0214844 132.958984 87.0214844 138.655599 87.0214844 143.030599 84.9934896 146.083984 80.9375 149.13737 76.8815104 150.664062 71.1165365 150.664062 63.6425781 150.664062 56.1686198 149.13737 50.4150391 146.083984 46.3818359 143.030599 42.3486328 138.655599 40.3320312 132.958984 40.3320312Z"/><polygon points="185.459 0 204.941 0 204.941 100.762 185.459 100.762"/><path d="M286.083984 35.6835938C292.373047 43.5677083 295.517578 52.8873698 295.517578 63.6425781 295.517578 74.5800781 292.373047 83.9339193 286.083984 91.7041016 279.794922 99.4742839 270.247396 103.359375 257.441406 103.359375 244.635417 103.359375 235.087891 99.4742839 228.798828 91.7041016 222.509766 83.9339193 219.365234 74.5800781 219.365234 63.6425781 219.365234 52.8873698 222.509766 43.5677083 228.798828 35.6835938 235.087891 27.7994792 244.635417 23.8574219 257.441406 23.8574219 270.247396 23.8574219 279.794922 27.7994792 286.083984 35.6835938ZM257.373047 40.3320312C251.676432 40.3320312 247.290039 42.3486328 244.213867 46.3818359 241.137695 50.4150391 239.599609 56.1686198 239.599609 63.6425781 239.599609 71.1165365 241.137695 76.8815104 244.213867 80.9375 247.290039 84.9934896 251.676432 87.0214844 257.373047 87.0214844 263.069661 87.0214844 267.444661 84.9934896 270.498047 80.9375 273.551432 76.8815104 275.078125 71.1165365 275.078125 63.6425781 275.078125 56.1686198 273.551432 50.4150391 270.498047 46.3818359 267.444661 42.3486328 263.069661 40.3320312 257.373047 40.3320312ZM346.923828 44.2285156C339.085286 44.2285156 333.821615 46.780599 331.132812 51.8847656 329.628906 54.7558594 328.876953 59.1764323 328.876953 65.1464844L328.876953 100.761719 309.257812 100.761719 309.257812 26.25 327.851562 26.25 327.851562 39.2382812C330.859375 34.2708333 333.479818 30.875651 335.712891 29.0527344 339.358724 25.999349 344.098307 24.4726562 349.931641 24.4726562 350.296224 24.4726562 350.603841 24.4840495 350.854492 24.5068359 351.105143 24.5296224 351.663411 24.5638021 352.529297 24.609375L352.529297 44.5703125C351.298828 44.4335938 350.205078 44.3424479 349.248047 44.296875 348.291016 44.2513021 347.516276 44.2285156 346.923828 44.2285156Z"/></g></g></svg>