<svg xmlns="http://www.w3.org/2000/svg" width="22" height="22" viewBox="0 0 22 22"><path fill-opacity=".6" d="M16.5,11.9148333 L11.9166667,11.9148333 L11.9166667,16.4981667 C11.9166667,17.0044277 11.506261,17.4148333 11,17.4148333 C10.493739,17.4148333 10.0833333,17.0044277 10.0833333,16.4981667 L10.0833333,11.9148333 L5.5,11.9148333 C4.99373898,11.9148333 4.58333333,11.5044277 4.58333333,10.9981667 C4.58333333,10.4919056 4.99373898,10.0815 5.5,10.0815 L10.0833333,10.0815 L10.0833333,5.49816667 C10.0833333,4.99190565 10.493739,4.5815 11,4.5815 C11.506261,4.5815 11.9166667,4.99190565 11.9166667,5.49816667 L11.9166667,10.0815 L16.5,10.0815 C17.006261,10.0815 17.4166667,10.4919056 17.4166667,10.9981667 C17.4166667,11.5044277 17.006261,11.9148333 16.5,11.9148333 Z"/></svg>