<?xml version="1.0" standalone="no"?>
<!DOCTYPE svg PUBLIC "-//W3C//DTD SVG 20010904//EN"
 "http://www.w3.org/TR/2001/REC-SVG-20010904/DTD/svg10.dtd">
<svg version="1.0" xmlns="http://www.w3.org/2000/svg"
 width="260.000000pt" height="260.000000pt" viewBox="0 0 260.000000 260.000000"
 preserveAspectRatio="xMidYMid meet">
<metadata>
Created by potrace 1.14, written by Peter Selinger 2001-2017
</metadata>
<g transform="translate(0.000000,260.000000) scale(0.100000,-0.100000)"
fill="#000000" stroke="none">
<path d="M1295 2122 c-5 -4 -12 -16 -13 -27 -5 -31 -12 -34 -92 -41 -41 -3
-82 -10 -90 -14 -8 -4 -19 -9 -25 -9 -50 -7 -230 -81 -245 -101 -3 -4 -20 -15
-37 -24 -18 -9 -33 -21 -33 -26 0 -6 -6 -10 -14 -10 -19 0 -148 -138 -193
-207 -21 -32 -42 -61 -46 -64 -5 -3 -8 -10 -8 -15 1 -18 -47 -103 -54 -96 -3
4 -5 2 -4 -3 2 -6 -5 -32 -15 -60 -34 -94 -33 -89 -41 -127 -7 -35 2 -39 56
-26 69 16 73 16 87 5 15 -12 86 -13 127 -3 17 5 36 9 43 9 6 0 12 3 12 7 0 11
138 12 144 2 3 -5 17 -8 31 -7 14 2 25 0 25 -4 0 -20 67 -26 135 -13 39 7 79
14 90 16 12 1 25 5 30 7 6 3 27 7 49 8 l38 3 -3 -50 c-2 -28 -1 -48 4 -45 12
7 8 -12 -5 -25 -7 -7 -8 -12 -2 -12 5 0 9 -22 9 -50 0 -27 -4 -50 -8 -50 -5 0
-5 -5 -1 -11 8 -13 11 -109 4 -109 -10 0 -5 -195 5 -202 7 -5 7 -8 0 -8 -6 0
-9 -21 -8 -48 4 -93 -47 -144 -130 -128 -36 7 -67 41 -70 77 -1 10 -5 19 -9
19 -4 0 -8 9 -8 20 0 28 -45 38 -69 16 -40 -36 7 -153 79 -201 38 -25 55 -30
106 -30 53 0 68 4 111 34 46 32 64 58 81 121 2 8 5 161 7 340 2 179 4 329 4
333 1 9 81 6 81 -4 0 -3 14 -5 30 -3 18 2 30 -1 30 -8 0 -6 2 -9 5 -6 3 3 30
0 59 -7 49 -12 60 -11 122 10 65 22 194 32 194 15 0 -4 8 -7 18 -7 9 1 37 -5
61 -12 46 -13 90 -8 103 12 6 9 8 9 8 -1 0 -10 5 -10 20 -2 14 8 20 8 20 0 0
-6 3 -9 8 -6 4 2 27 1 50 -4 47 -8 61 3 47 38 -11 24 -16 44 -18 65 -1 9 -5
17 -9 17 -4 0 -8 4 -8 9 0 5 -4 20 -9 33 -5 13 -8 25 -7 28 0 3 -9 19 -22 37
-12 17 -22 38 -22 46 0 7 -9 24 -20 37 -11 13 -23 34 -26 47 -4 13 -10 23 -15
23 -5 0 -16 15 -25 33 -19 37 -185 207 -203 207 -6 0 -11 5 -11 10 0 6 -6 10
-13 10 -7 0 -22 8 -33 19 -11 10 -37 24 -57 32 -20 7 -37 16 -37 20 0 4 -7 10
-16 13 -10 4 -13 2 -8 -7 4 -6 -1 -5 -12 4 -16 13 -54 27 -119 42 -5 2 -14 5
-20 9 -5 3 -44 9 -85 12 -82 8 -97 16 -102 51 -2 14 -7 21 -13 17z"/>
</g>
</svg>
