<svg xmlns="http://www.w3.org/2000/svg" width="180" height="180" viewBox="0 0 180 180"><defs><linearGradient id="a" x1="100%" x2="0%" y1="88.296%" y2="11.704%"><stop offset="0%" stop-color="#404040"/><stop offset="100%" stop-color="#57534E"/></linearGradient></defs><path fill="url(#a)" d="M33.6928242,140.402326 C33.6928242,137.295352 36.2115237,134.776653 39.3184971,134.776653 L140.580608,134.776653 C143.687581,134.776653 146.206281,137.295352 146.206281,140.402326 C146.206281,143.509299 143.687581,146.027999 140.580608,146.027999 L39.3184971,146.027999 C36.2115237,146.027999 33.6928242,143.509299 33.6928242,140.402326 Z M33.6928242,162.905017 C33.6928242,159.798044 36.2115237,157.279344 39.3184971,157.279344 L140.580608,157.279344 C143.687581,157.279344 146.206281,159.798044 146.206281,162.905017 C146.206281,166.01199 143.687581,168.53069 140.580608,168.53069 L39.3184971,168.53069 C36.2115237,168.53069 33.6928242,166.01199 33.6928242,162.905017 Z M150.763076,56.3210196 C145.967185,32.1450138 125.995487,13.9041374 101.48491,11.3134839 C76.9743343,8.72283027 53.6305837,22.3854657 43.8865434,45.0246686 C29.3815205,43.3536874 15.1425572,49.8454195 6.89124138,61.8913173 C-1.36007449,73.9372151 -2.26916967,89.5597696 4.52925404,102.48143 C11.3276778,115.40309 24.7175604,123.502578 39.3184971,123.52533 L146.206281,123.52533 C163.976676,123.545618 178.719407,109.784443 179.921571,92.0547459 C181.123736,74.3250492 168.37356,58.6997135 150.763076,56.3210196 Z M95.5752254,22.2631953 C118.497093,22.258439 137.760518,39.482151 140.310576,62.2617301 C140.627386,65.1248316 143.055725,67.2860536 145.936249,67.268579 L146.206281,67.268579 C158.634174,67.268579 168.708972,77.343377 168.708972,89.7712703 C168.708972,102.199164 158.634174,112.273962 146.206281,112.273962 L39.3184971,112.273962 C28.4492428,112.268557 18.5557969,106.001376 13.9068609,96.1765042 C9.25792502,86.3516321 10.6855701,74.7275338 17.5738134,66.3196315 C24.4620568,57.9117292 35.5780342,54.2248773 46.1255612,56.8498329 C48.9853994,57.5631402 51.9109494,55.9481973 52.8313632,53.1481402 C58.9300184,34.7140556 76.1585041,22.2654657 95.5752254,22.2631953 Z"/></svg>