<svg xmlns="http://www.w3.org/2000/svg" width="180" height="180" viewBox="0 0 180 180"><defs><linearGradient id="a" x1="100%" x2="0%" y1="93.925%" y2="6.075%"><stop offset="0%" stop-color="#E2E8F0"/><stop offset="100%" stop-color="#F3F4F6"/></linearGradient></defs><path fill="url(#a)" d="M30.9902779,107.337917 C38.7950157,85.0342801 60.9940771,71.0990364 84.4730178,73.7646501 C107.951959,76.4302638 126.462102,94.9873094 129.06829,118.472921 L129.371971,118.472921 C144.901498,118.472921 157.490668,131.06209 157.490668,146.591617 C157.490668,162.121144 144.901498,174.710323 129.371971,174.710323 L33.768405,174.710323 C15.6638809,174.723986 0.775050588,160.447245 0.0291371103,142.358088 C-0.716776367,124.268931 12.9460918,108.81485 30.9902779,107.337917 Z M78.7583187,84.7304852 C60.7946805,84.7304852 45.1064641,96.8837314 40.6181194,114.277611 C39.9536138,116.864722 37.5609742,118.627472 34.8931529,118.495416 C26.7606745,118.134365 19.0676629,122.195185 14.7776765,129.113536 C10.4876902,136.031887 10.2701743,144.728172 14.2089219,151.852344 C18.1476696,158.976516 25.6280458,163.41686 33.768405,163.462834 L129.371971,163.462834 C138.689688,163.462834 146.243189,155.909333 146.243189,146.591617 C146.231963,141.377164 143.814935,136.459705 139.693211,133.265644 C135.571487,130.071582 130.206389,128.958413 125.154167,130.249031 C123.454874,130.688019 121.648063,130.308501 120.269006,129.222908 C118.88995,128.137314 118.096787,126.470133 118.124493,124.715271 C118.290257,114.167945 114.216056,103.995345 106.815423,96.478417 C99.4147903,88.9614886 89.3069478,84.7291829 78.7583187,84.7304852 Z M120.610186,6.2568286 C122.885869,5.54494358 125.363115,6.34554985 126.791751,8.25461129 C128.220386,10.1636727 128.28982,12.766152 126.965011,14.7486748 L126.976259,14.7486748 C117.466908,29.0037227 117.981645,47.7062596 128.260671,61.4166852 C138.539697,75.1271107 156.347976,80.8642764 172.697258,75.7325027 C174.972942,75.0206177 177.450188,75.821224 178.878823,77.7302854 C180.307459,79.6393469 180.376892,82.2418261 179.052084,84.2243489 C169.908074,97.9421469 154.762379,106.467869 138.291222,107.169205 C137.177722,103.255082 135.681807,99.4871771 133.859715,95.9217265 C142.821908,96.4239625 151.694549,93.9138088 159.065314,88.7908252 C143.353116,88.3256492 128.707507,80.7319555 119.273255,68.1587905 C109.839003,55.5856254 106.642616,39.4010293 110.588683,24.1853092 C98.5547381,33.9751055 93.1655656,49.7757751 96.7092942,64.8786861 C92.8409314,63.7065111 88.8662907,62.9191179 84.8432045,62.5279631 C81.454348,37.5599047 96.5647573,13.7871444 120.610186,6.2568286 Z"/></svg>